HIERARCHY
ROOT Hips
{
	OFFSET 0.00000 0.00000 0.00000
	CHANNELS 6 Xposition Yposition Zposition Zrotation Yrotation Xrotation 
	JOINT LHipJoint
	{
		OFFSET 0 0 0
		CHANNELS 3 Zrotation Yrotation Xrotation
		JOINT LeftUpLeg
		{
			OFFSET 1.57358 -1.76629 0.73362
			CHANNELS 3 Zrotation Yrotation Xrotation
			JOINT LeftLeg
			{
				OFFSET 2.40600 -6.61045 0.00000
				CHANNELS 3 Zrotation Yrotation Xrotation
				JOINT LeftFoot
				{
					OFFSET 2.66168 -7.31291 0.00000
					CHANNELS 3 Zrotation Yrotation Xrotation
					JOINT LeftToeBase
					{
						OFFSET 0.20870 -0.57341 2.12506
						CHANNELS 3 Zrotation Yrotation Xrotation
						End Site
						{
							OFFSET 0.00000 -0.00000 1.10557
						}
					}
				}
			}
		}
	}
	JOINT RHipJoint
	{
		OFFSET 0 0 0
		CHANNELS 3 Zrotation Yrotation Xrotation
		JOINT RightUpLeg
		{
			OFFSET -1.49299 -1.76629 0.73362
			CHANNELS 3 Zrotation Yrotation Xrotation
			JOINT RightLeg
			{
				OFFSET -2.43663 -6.69460 0.00000
				CHANNELS 3 Zrotation Yrotation Xrotation
				JOINT RightFoot
				{
					OFFSET -2.62959 -7.22474 0.00000
					CHANNELS 3 Zrotation Yrotation Xrotation
					JOINT RightToeBase
					{
						OFFSET -0.25784 -0.70841 2.21862
						CHANNELS 3 Zrotation Yrotation Xrotation
						End Site
						{
							OFFSET -0.00000 -0.00000 1.16452
						}
					}
				}
			}
		}
	}
	JOINT LowerBack
	{
		OFFSET 0 0 0
		CHANNELS 3 Zrotation Yrotation Xrotation
		JOINT Spine
		{
			OFFSET -0.00034 2.12399 -0.25450
			CHANNELS 3 Zrotation Yrotation Xrotation
			JOINT Spine1
			{
				OFFSET 0.05594 2.14379 -0.03318
				CHANNELS 3 Zrotation Yrotation Xrotation
				JOINT Neck
				{
					OFFSET 0 0 0
					CHANNELS 3 Zrotation Yrotation Xrotation
					JOINT Neck1
					{
						OFFSET -0.09835 1.62725 0.24211
						CHANNELS 3 Zrotation Yrotation Xrotation
						JOINT Head
						{
							OFFSET 0.10849 1.66041 -0.22648
							CHANNELS 3 Zrotation Yrotation Xrotation
							End Site
							{
								OFFSET 0.04385 1.68267 -0.10541
							}
						}
					}
				}
				JOINT LeftShoulder
				{
					OFFSET 0 0 0
					CHANNELS 3 Zrotation Yrotation Xrotation
					JOINT LeftArm
					{
						OFFSET 3.29108 0.79398 -0.68179
						CHANNELS 3 Zrotation Yrotation Xrotation
						JOINT LeftForeArm
						{
							OFFSET 5.15310 -0.00000 -0.00000
							CHANNELS 3 Zrotation Yrotation Xrotation
							JOINT LeftHand
							{
								OFFSET 3.75138 -0.00000 -0.00000
								CHANNELS 3 Zrotation Yrotation Xrotation
								JOINT LeftFingerBase
								{
									OFFSET 0 0 0
									CHANNELS 3 Zrotation Yrotation Xrotation
									JOINT LeftHandIndex1
									{
										OFFSET 0.52917 -0.00000 0.00000
										CHANNELS 3 Zrotation Yrotation Xrotation
										End Site
										{
											OFFSET 0.42663 -0.00000 0.00000
										}
									}
								}
								JOINT LThumb
								{
									OFFSET 0 0 0
									CHANNELS 3 Zrotation Yrotation Xrotation
									End Site
									{
										OFFSET 0.43315 -0.00000 0.43315
									}
								}
							}
						}
					}
				}
				JOINT RightShoulder
				{
					OFFSET 0 0 0
					CHANNELS 3 Zrotation Yrotation Xrotation
					JOINT RightArm
					{
						OFFSET -3.07414 1.06285 -0.44338
						CHANNELS 3 Zrotation Yrotation Xrotation
						JOINT RightForeArm
						{
							OFFSET -5.29613 -0.00000 0.00000
							CHANNELS 3 Zrotation Yrotation Xrotation
							JOINT RightHand
							{
								OFFSET -3.76144 -0.00000 -0.00000
								CHANNELS 3 Zrotation Yrotation Xrotation
								JOINT RightFingerBase
								{
									OFFSET 0 0 0
									CHANNELS 3 Zrotation Yrotation Xrotation
									JOINT RightHandIndex1
									{
										OFFSET -0.74732 -0.00000 0.00000
										CHANNELS 3 Zrotation Yrotation Xrotation
										End Site
										{
											OFFSET -0.60251 -0.00000 0.00000
										}
									}
								}
								JOINT RThumb
								{
									OFFSET 0 0 0
									CHANNELS 3 Zrotation Yrotation Xrotation
									End Site
									{
										OFFSET -0.61171 -0.00000 0.61171
									}
								}
							}
						}
					}
				}
			}
		}
	}
}
MOTION
Frames: 12
Frame Time: 0.166667
0.00 0.00 0.00 0 0 0 0 0 0 -21 0 0 0 0 0 0 0 0 0 0 0 0 0 0 21 0 0 0 0 0 0 0 0 0 0 0 0 0 0 0 0 0 0 0 0 0 0 -16 0 0 21 0 0 11 0 0 0 -8 0 0 0 0 0 0 0 0 0 0 0 0 0 0 0 0 0 0 0 0 8 0 0 0 0 0 0 0 0 0 0 0 0 0 0 0 0 0
0.00 0.00 0.00 2.6990 -6.6496 -2.5858 0.0000 0.0000 0.0000 -26.6251 -5.6984 -10.8273 1.7890 8.4120 23.9726 0.2036 -3.3521 -8.0258 0.0274 1.0684 2.9371 0.0000 0.0000 0.0000 18.0454 6.1508 -15.4572 -13.5100 -18.9586 70.7023 0.0162 -8.5355 5.6586 -0.4377 -4.2451 11.7672 -5.4786 -2.8074 6.3117 5.4951 -3.9557 -2.0144 9.3392 -1.7089 -4.9011 -16.0445 2.3901 -4.2599 2.8766 4.4552 19.3443 3.8376 1.2301 6.2358 0.0000 -0.0000 0.0000 -100.4218 9.7795 0.4423 14.5887 -23.5700 -3.0596 -0.0000 -0.0000 12.4927 17.5276 22.3516 6.8488 -7.1250 0.0000 -0.0000 -11.7904 52.9222 -2.3240 0.0000 -0.0000 0.0000 78.7830 -6.5820 22.7164 -15.1043 24.2912 -3.2687 0.0000 0.0000 8.1337 -13.4766 14.3611 -3.4017 7.1250 -0.0000 -0.0000 9.5291 -15.3663 6.7588
0.00 0.00 0.00 4.2521 -3.4515 -1.8382 0.0000 0.0000 0.0000 -29.3778 -3.9305 -5.8059 2.1380 9.1479 26.2590 0.6649 -6.2641 -14.5552 0.0363 1.2297 3.3811 0.0000 0.0000 0.0000 14.4619 8.2775 -28.2225 -9.4994 -17.1186 57.8017 -0.1047 -4.4092 -9.2904 -0.0405 -1.2984 3.5704 -6.7779 -3.2776 7.2489 4.9548 -4.7697 -2.0341 9.6491 -2.0602 -5.2395 -14.4972 1.4816 -6.0271 2.7052 3.4076 19.9746 3.5271 0.7877 6.8616 0.0000 -0.0000 0.0000 -95.3406 6.2306 8.8980 17.3498 -27.3166 -4.2466 -0.0000 -0.0000 8.8916 18.0168 22.4434 7.0781 -7.1250 0.0000 -0.0000 -11.3403 53.1029 -2.2838 0.0000 -0.0000 0.0000 80.6955 -8.9041 17.4262 -15.3395 24.6170 -3.3661 0.0000 0.0000 6.4888 -12.6529 15.1796 -3.3642 7.1250 -0.0000 -0.0000 10.0812 -14.6061 7.3295
0.00 0.00 0.00 4.5604 -2.7428 -0.7566 0.0000 0.0000 0.0000 -29.7284 -2.5636 -2.7889 1.7925 8.4198 23.9967 0.7881 -7.0951 -15.8761 0.0089 0.6086 1.6725 0.0000 0.0000 0.0000 13.6779 9.3388 -29.6681 -5.3193 -13.7346 42.1846 -0.0651 -6.0569 -10.2274 -0.1015 -2.0543 5.6557 -7.4803 -3.9208 6.9166 5.2244 -5.6722 -2.1124 10.3938 -2.5074 -4.8523 -14.7313 1.7189 -6.6539 3.2061 3.7560 19.2334 3.7438 1.0201 6.6777 -0.0000 0.0000 0.0000 -94.3521 4.9475 9.7409 19.0503 -29.4812 -5.0556 -0.0000 -0.0000 8.3932 18.7397 23.6454 7.7484 -7.1250 0.0000 -0.0000 -11.1188 54.4485 -2.6057 -0.0000 0.0000 0.0000 80.3915 -9.2819 19.1061 -15.8154 25.2696 -3.5668 0.0000 0.0000 6.2510 -12.9958 14.1975 -3.2398 7.1250 -0.0000 -0.0000 9.8567 -15.5675 6.9550
0.00 0.00 0.00 5.1605 -2.8943 -0.0307 0.0000 0.0000 0.0000 -30.1943 0.0555 0.6752 1.3588 7.3786 20.8419 0.8199 -7.1466 -16.1901 0.0030 0.3530 0.9699 0.0000 0.0000 0.0000 12.9351 10.6460 -27.5922 -1.7465 -8.3167 23.6803 0.1173 -7.3825 -7.1861 -0.1743 -2.6892 7.4145 -7.6552 -3.5564 6.2876 4.5010 -5.1833 -1.5102 9.5646 -2.3389 -4.0178 -13.8927 1.1132 -8.2883 4.0295 2.9258 19.1494 3.8516 0.7601 6.9921 -0.0000 0.0000 0.0000 -91.6928 2.5830 12.3764 19.8378 -30.4464 -5.4489 -0.0000 -0.0000 7.5148 19.6840 23.4500 8.1022 -7.1250 0.0000 -0.0000 -10.0713 54.4330 -2.3524 -0.0000 0.0000 0.0000 82.2122 -8.2211 16.6031 -15.3112 24.5778 -3.3543 0.0000 0.0000 6.7564 -12.7863 16.6826 -3.7275 7.1250 -0.0000 -0.0000 9.9906 -13.0859 7.5880
0.00 0.00 0.00 3.0031 -2.5023 -0.0039 0.0000 0.0000 0.0000 -26.7162 -1.6954 8.5282 2.8470 10.4432 30.4242 -0.0875 -7.4594 -2.9372 1.1310 -6.7545 -18.9901 0.0000 0.0000 0.0000 18.4705 10.2752 -21.4943 -1.3970 -7.4772 21.1370 0.0709 -4.7946 -0.8445 -0.3375 -3.7336 10.3283 -3.4767 -1.6674 4.8748 2.5297 -2.3530 0.3466 4.7226 -1.1344 -2.1288 -9.5074 -1.9040 -15.2817 4.7685 -1.4010 22.8406 3.0912 -0.9354 9.8837 -0.0000 0.0000 0.0000 -87.1808 -1.8904 16.8543 17.3748 -27.3492 -4.2581 -0.0000 -0.0000 8.7056 17.4371 27.0218 8.1213 -7.1250 0.0000 -0.0000 -14.1589 57.5424 -4.4074 -0.0000 0.0000 0.0000 88.7338 -5.2386 4.5083 -14.3446 23.2251 -2.9626 0.0000 0.0000 9.6414 -13.3725 16.6671 -3.9005 7.1250 -0.0000 -0.0000 9.6017 -13.0499 7.2911
0.00 0.00 0.00 2.1461 -3.0543 -0.5312 0.0000 0.0000 0.0000 -24.4625 -1.9283 3.9514 4.7329 13.0765 39.6555 0.0242 -7.5866 11.3289 0.8807 -5.9825 -16.7338 0.0000 0.0000 0.0000 20.5624 9.9943 -18.4786 -1.5436 -7.8425 22.2367 0.0548 -4.1497 -1.3949 -0.8527 -5.8890 16.4628 -3.1053 -1.5884 5.2202 2.9139 -2.2258 0.4063 4.9179 -1.0708 -2.2730 -10.0351 -2.3189 -15.6472 4.7947 -1.8240 23.4484 3.1454 -1.1844 10.2162 -0.0000 0.0000 0.0000 -88.5517 -0.6270 14.6119 16.4567 -26.1360 -3.8449 -0.0000 -0.0000 9.6114 17.4188 26.6667 8.0150 -7.1250 0.0000 -0.0000 -13.9776 57.1896 -4.2298 -0.0000 0.0000 0.0000 88.0932 -5.2987 5.3477 -14.3506 23.2337 -2.9650 0.0000 0.0000 10.0916 -13.1842 15.9933 -3.6930 7.1250 -0.0000 -0.0000 9.7237 -13.7446 7.2422
0.00 0.00 0.00 -0.8852 -4.7996 -0.7702 0.0000 0.0000 0.0000 -18.9369 -2.7373 -8.0971 9.1574 16.9079 56.6328 0.4027 -9.4668 18.9407 0.2077 -2.9342 -8.0957 0.0000 0.0000 0.0000 25.6854 9.0683 -11.2619 -1.0575 -6.5386 18.3554 0.0317 -3.6202 -3.2058 -0.6276 -5.0694 14.1067 -0.2930 -0.7360 6.1055 3.3947 -0.9061 0.7128 3.7490 -0.4353 -2.6293 -9.9190 -2.7403 -15.7598 5.6875 -2.6432 22.5791 3.3203 -1.4302 9.9989 -0.0000 -0.0000 0.0000 -89.2026 0.2459 15.7524 15.2613 -24.5089 -3.3336 -0.0000 -0.0000 10.1443 13.9955 31.9239 7.5082 -7.1250 0.0000 -0.0000 -21.2710 61.4226 -8.7252 -0.0000 -0.0000 0.0000 87.6944 -3.9751 7.1039 -14.3489 23.2313 -2.9643 0.0000 0.0000 10.2021 -13.6892 16.4267 -3.9403 7.1250 -0.0000 -0.0000 9.3894 -13.2639 7.0825
0.00 0.00 0.00 -1.5477 -4.8659 -0.7403 0.0000 0.0000 0.0000 -16.0615 -3.9764 -19.4922 11.5552 18.1962 64.5719 -0.0120 -3.2392 3.9401 0.2038 -2.9070 -8.0199 0.0000 0.0000 0.0000 27.5476 7.5507 -6.7981 -1.0590 -6.5429 18.3681 -0.0466 -3.2113 -6.4812 -0.3366 -3.7284 10.3138 0.1250 -0.1966 6.4815 3.0662 -0.1660 0.9111 3.1116 -0.0726 -2.6863 -9.7263 -3.1626 -15.1664 6.1535 -3.4506 22.1555 3.3407 -1.7361 9.8098 0.0000 0.0000 0.0000 -90.0130 1.0497 15.6621 14.7876 -23.8494 -3.1396 -0.0000 -0.0000 12.5007 11.5741 32.7234 6.3176 -7.1250 0.0000 -0.0000 -24.5533 61.5538 -10.2351 0.0000 0.0000 0.0000 87.6209 -1.2530 7.8630 -14.4403 23.3606 -3.0005 0.0000 0.0000 9.8663 -15.0636 15.5287 -4.1213 7.1250 -0.0000 -0.0000 8.4610 -14.0504 6.2233
0.00 0.00 0.00 -2.0448 -7.8274 1.1910 0.0000 0.0000 0.0000 -17.1958 -9.4601 -22.4719 1.4432 7.5947 21.4898 -0.0019 -1.6890 -0.9804 0.0021 -0.2961 -0.8134 0.0000 0.0000 0.0000 26.4366 2.5167 4.5942 -3.8295 -11.9301 35.4850 -0.0893 -0.0416 -5.6574 -0.1311 2.3335 -6.4283 0.9900 1.1274 5.2103 1.8452 1.6162 0.0146 1.2202 0.8027 -2.9323 -9.5300 -3.1719 -15.3445 6.0481 -3.5294 23.8467 3.2904 -1.7859 10.4530 0.0000 -0.0000 0.0000 -92.2079 3.9887 10.7624 12.0055 -19.8130 -2.1042 -0.0000 -0.0000 12.0552 16.6583 25.0614 7.2235 -7.1250 0.0000 -0.0000 -13.9098 55.4528 -3.6198 0.0000 -0.0000 0.0000 86.6037 2.1811 13.4288 -18.6918 29.0339 -4.8804 0.0000 0.0000 5.5671 -13.2852 10.7718 -2.5268 7.1250 -0.0000 -0.0000 9.7206 -19.0038 6.1137
0.00 0.00 0.00 -3.9677 38.5620 -1.8469 0.0000 0.0000 0.0000 -12.6861 -9.8254 -30.5597 7.5063 15.7439 50.7644 0.1797 0.2696 -8.1098 0.0196 0.9035 2.4834 0.0000 0.0000 0.0000 30.2031 4.3062 0.5057 -1.0156 -6.4118 17.9839 -0.5731 1.1498 -13.9516 -0.2800 -3.4034 9.4040 3.1976 0.8758 7.5324 2.5620 1.5596 0.4353 0.6899 0.7489 -3.7624 -9.1456 -3.6021 -16.2834 4.1460 -3.4956 24.3795 2.5502 -1.8966 10.7979 -0.0000 0.0000 0.0000 -90.9861 5.4002 17.5545 13.9231 -22.6246 -2.7984 -0.0000 -0.0000 11.3738 15.2253 20.7316 5.5032 -7.1250 0.0000 -0.0000 -13.3925 50.9126 -1.9814 -0.0000 0.0000 0.0000 85.8896 -1.2569 13.7013 -21.5912 32.5119 -6.3647 0.0000 0.0000 2.0396 -12.5143 12.9193 -2.8410 7.1250 -0.0000 -0.0000 10.2045 -16.8868 6.9116
0.00 0.00 0.00 -4.6000 33.5568 -0.4309 0.0000 0.0000 0.0000 -13.3763 -13.2508 -27.6491 1.3642 7.3925 20.8834 0.1809 -0.2771 -7.9389 0.6697 -5.2331 -14.5747 0.0000 0.0000 0.0000 30.7762 1.0125 10.4324 -0.5011 -4.5383 12.5963 -0.6126 -0.9010 -15.1391 -0.0000 -0.0115 0.0316 4.4005 1.8686 6.4425 2.1794 2.9431 -0.6785 -0.4999 1.3874 -4.2140 -7.3490 -3.2211 -14.8935 2.4646 -3.1362 21.7715 1.6905 -1.7577 9.5025 -0.0000 0.0000 0.0000 -92.6943 4.9271 12.4859 11.3404 -18.8081 -1.8842 -0.0000 -0.0000 16.5998 15.3499 23.3481 6.2088 -7.1250 0.0000 -0.0000 -14.3944 53.5175 -3.0647 -0.0000 0.0000 0.0000 84.9060 0.8719 15.4216 -21.6919 32.6271 -6.4189 0.0000 0.0000 2.1115 -13.8041 14.4559 -3.5098 7.1250 -0.0000 -0.0000 9.3064 -15.2450 6.6211
